<?xml version="1.0" encoding="utf-8"?>
<!-- Generator: Adobe Illustrator 21.0.0, SVG Export Plug-In . SVG Version: 6.00 Build 0)  -->
<svg version="1.1" id="Layer_1" xmlns="http://www.w3.org/2000/svg" xmlns:xlink="http://www.w3.org/1999/xlink" x="0px" y="0px"
	 viewBox="0 0 841.9 595.3" style="enable-background:new 0 0 841.9 595.3;" xml:space="preserve">
<style type="text/css">
	.st0{clip-path:url(#SVGID_2_);fill:#FFFFFF;}
	.st1{fill:#FFFFFF;}
	.st2{clip-path:url(#SVGID_4_);fill:#FFFFFF;}
	.st3{clip-path:url(#SVGID_6_);fill:#FFFFFF;}
	.st4{clip-path:url(#SVGID_8_);fill:#FFFFFF;}
	.st5{clip-path:url(#SVGID_10_);fill:#FFFFFF;}
	.st6{clip-path:url(#SVGID_12_);fill:#FFFFFF;}
	.st7{clip-path:url(#SVGID_14_);fill:#FFFFFF;}
	.st8{clip-path:url(#SVGID_16_);fill:#FFFFFF;}
	.st9{clip-path:url(#SVGID_18_);fill:#FFFFFF;}
	.st10{clip-path:url(#SVGID_20_);fill:#FFFFFF;}
	.st11{clip-path:url(#SVGID_22_);fill:#FFFFFF;}
</style>
<rect y="545.5" width="841.9" height="49.4"/>
<rect x="180" y="545" width="245.6" height="50.2"/>
<g>
	<defs>
		<rect id="SVGID_1_" x="180" y="545" width="841.9" height="50.2"/>
	</defs>
	<clipPath id="SVGID_2_">
		<use xlink:href="#SVGID_1_"  style="overflow:visible;"/>
	</clipPath>
	<path class="st0" d="M330.7,557.7c-0.3-0.7-0.6-1.1-1.1-1.1c-0.5,0-0.8,0.3-0.8,0.9c0,1.2,3.4,1.3,3.4,3.8c0,1.4-0.9,2.3-2.5,2.3
		c-1.2,0-2.2-0.7-2.6-2.2l1.5-0.3c0.2,1,0.7,1.3,1.2,1.3c0.5,0,0.9-0.4,0.9-0.9c0-1.5-3.4-1.5-3.4-3.7c0-1.4,0.8-2.2,2.4-2.2
		c1.3,0,2.2,0.8,2.4,1.9L330.7,557.7z"/>
	<path class="st0" d="M333.4,563.4v-7.9h1.4v2.6c0.5-0.4,0.9-0.8,1.5-0.8c0.8,0,1.3,0.4,1.3,1.5v4.5h-1.4V559c0-0.4-0.1-0.7-0.5-0.7
		c-0.3,0-0.6,0.3-0.9,0.5v4.5H333.4z"/>
	<path class="st0" d="M341.6,560.5c-0.8,0.3-1.7,0.7-1.7,1.4c0,0.4,0.2,0.6,0.6,0.6c0.4,0,0.7-0.2,1-0.5V560.5z M338.7,559.2
		c0.1-0.7,0.3-1.1,0.7-1.4c0.4-0.3,0.9-0.4,1.5-0.4c1.5,0,2,0.7,2,1.8v3.8c0,0.2,0,0.3,0.1,0.5h-1.4c0-0.2-0.1-0.3-0.1-0.6
		c-0.4,0.4-1,0.7-1.6,0.7c-0.8,0-1.4-0.5-1.4-1.4c0-1.4,1.3-2,3-2.5v-0.4c0-0.5-0.3-0.7-0.7-0.7c-0.4,0-0.8,0.3-0.8,0.7H338.7z"/>
	<path class="st0" d="M345.7,562c0.3,0.3,0.5,0.4,0.8,0.4c0.4,0,0.7-0.2,0.7-1.4v-1.3c0-1.2-0.3-1.4-0.7-1.4c-0.3,0-0.6,0.1-0.8,0.4
		V562z M345.6,557.4v0.7h0c0.2-0.4,0.9-0.8,1.5-0.8c1.1,0,1.5,0.8,1.5,2.4v1.4c0,1.5-0.4,2.4-1.5,2.4c-0.4,0-0.7-0.2-1.4-0.7v2.6
		h-1.4v-8H345.6z"/>
</g>
<path class="st1" d="M351.3,563.4H350v-6h1.4V563.4z M350,555.2h1.4v1.2H350V555.2z"/>
<g>
	<defs>
		<rect id="SVGID_3_" x="180" y="545" width="841.9" height="50.2"/>
	</defs>
	<clipPath id="SVGID_4_">
		<use xlink:href="#SVGID_3_"  style="overflow:visible;"/>
	</clipPath>
	<path class="st2" d="M352.8,563.4v-6h1.3v0.7c0.5-0.4,1-0.8,1.5-0.8c0.8,0,1.3,0.4,1.3,1.5v4.5h-1.4V559c0-0.4-0.1-0.7-0.5-0.7
		c-0.3,0-0.6,0.3-0.9,0.5v4.5H352.8z"/>
	<path class="st2" d="M360.1,558.5c-0.5,0-0.7,0.4-0.7,1.3c0,0.7,0.2,1.1,0.7,1.1c0.6,0,0.8-0.2,0.8-1.3
		C360.8,558.8,360.6,558.5,360.1,558.5 M359.5,563.7c-0.1,0.1-0.3,0.3-0.3,0.5c0,0.3,0.4,0.4,1.3,0.4c0.7,0,1-0.2,1-0.5
		c0-0.2-0.1-0.3-0.5-0.3L359.5,563.7z M362.9,558.5c-0.1,0-0.3-0.1-0.4-0.1c-0.1,0-0.3,0.1-0.5,0.1c0.1,0.4,0.2,0.7,0.2,1.1
		c0,1.5-0.6,2.3-2,2.3c-0.2,0-0.4,0-0.6-0.1c-0.1,0.1-0.2,0.2-0.2,0.3c0,0.7,3.5-0.4,3.5,1.8c0,1-1.1,1.5-2.6,1.5
		c-1.5,0-2.3-0.4-2.3-1.1c0-0.4,0.5-0.7,0.8-0.9c-0.3-0.2-0.6-0.5-0.6-0.8c0-0.5,0.5-0.8,0.8-1c-0.7-0.4-0.9-1.1-0.9-2.1
		c0-1.3,0.5-2.2,2-2.2c0.6,0,1.2,0.3,1.6,0.7c0.4-0.4,0.7-0.7,1.2-0.7V558.5z"/>
	<path class="st2" d="M368.2,562c0.3,0.3,0.5,0.4,0.8,0.4c0.4,0,0.7-0.2,0.7-1.4v-1.3c0-1.2-0.3-1.4-0.7-1.4c-0.3,0-0.6,0.1-0.8,0.4
		V562z M368.1,557.4v0.7h0c0.2-0.4,0.9-0.8,1.5-0.8c1.1,0,1.5,0.8,1.5,2.4v1.4c0,1.5-0.4,2.4-1.5,2.4c-0.4,0-0.7-0.2-1.4-0.7v2.6
		h-1.4v-8H368.1z"/>
	<path class="st2" d="M372.3,563.4v-6h1.3v0.8h0c0.3-0.6,0.7-0.9,1.4-0.9v1.5c-0.2-0.1-0.5-0.2-0.7-0.2c-0.4,0-0.7,0.3-0.7,0.7v4.1
		H372.3z"/>
	<path class="st2" d="M378.6,560.5c-0.8,0.3-1.7,0.7-1.7,1.4c0,0.4,0.2,0.6,0.6,0.6c0.4,0,0.7-0.2,1-0.5V560.5z M375.8,559.2
		c0.1-0.7,0.3-1.1,0.7-1.4c0.4-0.3,0.9-0.4,1.5-0.4c1.5,0,2,0.7,2,1.8v3.8c0,0.2,0,0.3,0.1,0.5h-1.4c0-0.2-0.1-0.3-0.1-0.6
		c-0.4,0.4-1,0.7-1.6,0.7c-0.8,0-1.4-0.5-1.4-1.4c0-1.4,1.3-2,3-2.5v-0.4c0-0.5-0.3-0.7-0.7-0.7c-0.4,0-0.8,0.3-0.8,0.7H375.8z"/>
	<path class="st2" d="M384.3,559.5v-0.3c0-0.5-0.3-0.7-0.8-0.7c-0.5,0-0.8,0.2-0.8,0.7v2.4c0,0.5,0.3,0.7,0.8,0.7
		c0.5,0,0.8-0.2,0.8-0.7v-0.4h1.4v0c0,1.6-0.8,2.3-2.2,2.3c-1.4,0-2.2-0.7-2.2-2.3v-1.7c0-1.6,0.8-2.3,2.2-2.3
		c1.3,0,2.2,0.7,2.2,2.2H384.3z"/>
	<path class="st2" d="M386.3,558.8v-1.1h0.5v-1.6h1.4v1.6h0.9v1.1h-0.9v3c0,0.3,0.3,0.4,0.6,0.4c0.1,0,0.2,0,0.3,0v1.2
		c-0.3,0-0.5,0.1-0.8,0.1c-0.9,0-1.5-0.3-1.5-1.2v-3.5H386.3z"/>
</g>
<path class="st1" d="M391.4,563.4h-1.4v-6h1.4V563.4z M390.1,555.2h1.4v1.2h-1.4V555.2z"/>
<g>
	<defs>
		<rect id="SVGID_5_" x="180" y="545" width="841.9" height="50.2"/>
	</defs>
	<clipPath id="SVGID_6_">
		<use xlink:href="#SVGID_5_"  style="overflow:visible;"/>
	</clipPath>
	<path class="st3" d="M395.8,559.5v-0.3c0-0.5-0.3-0.7-0.8-0.7c-0.5,0-0.8,0.2-0.8,0.7v2.4c0,0.5,0.3,0.7,0.8,0.7
		c0.5,0,0.8-0.2,0.8-0.7v-0.4h1.4v0c0,1.6-0.8,2.3-2.2,2.3c-1.4,0-2.2-0.7-2.2-2.3v-1.7c0-1.6,0.8-2.3,2.2-2.3
		c1.3,0,2.2,0.7,2.2,2.2H395.8z"/>
	<path class="st3" d="M401.3,559.6v-0.3c0-0.5-0.3-0.9-0.8-0.9c-0.6,0-0.8,0.3-0.8,0.9v0.3H401.3z M399.7,560.7v0.8
		c0,0.6,0.4,0.9,0.8,0.9c0.6,0,0.8-0.4,0.8-0.8h1.4c-0.1,1.2-0.8,1.9-2.2,1.9c-1.3,0-2.2-0.8-2.2-2.1v-1.9c0-1.3,0.9-2.1,2.2-2.1
		c1.3,0,2.2,0.8,2.2,2v1.4H399.7z"/>
	<path class="st3" d="M406.5,559.3c-0.2-0.5-0.5-0.8-1-0.8c-0.3,0-0.6,0.2-0.6,0.5c0,0.9,2.7,0.9,2.7,2.7c0,1.2-0.8,1.8-2,1.8
		c-0.8,0-1.6-0.2-2.2-1.7l1.2-0.3c0.1,0.6,0.5,0.9,1,0.9c0.4,0,0.7-0.2,0.7-0.5c0-1.1-2.7-0.9-2.7-2.9c0-1.1,0.9-1.7,1.9-1.7
		c1,0,1.7,0.6,2.1,1.5L406.5,559.3z"/>
</g>
<rect x="327.4" y="566.3" class="st1" width="1.5" height="7.9"/>
<g>
	<defs>
		<rect id="SVGID_7_" x="180" y="545" width="841.9" height="50.2"/>
	</defs>
	<clipPath id="SVGID_8_">
		<use xlink:href="#SVGID_7_"  style="overflow:visible;"/>
	</clipPath>
	<path class="st4" d="M330.4,574.2v-6h1.3v0.7c0.5-0.4,1-0.8,1.5-0.8c0.8,0,1.3,0.4,1.3,1.5v4.5h-1.4v-4.4c0-0.4-0.1-0.7-0.5-0.7
		c-0.3,0-0.6,0.3-0.9,0.5v4.5H330.4z"/>
	<path class="st4" d="M338.1,567.4h-0.4c-0.3,0-0.5,0.2-0.5,0.5v0.6h0.8v1.1h-0.8v4.6h-1.4v-4.6h-0.6v-1.1h0.6v-0.6
		c0-1.4,0.6-1.8,1.6-1.8c0.2,0,0.4,0,0.7,0.1V567.4z"/>
</g>
<rect x="339.1" y="566.3" class="st1" width="1.4" height="7.9"/>
<g>
	<defs>
		<rect id="SVGID_9_" x="180" y="545" width="841.9" height="50.2"/>
	</defs>
	<clipPath id="SVGID_10_">
		<use xlink:href="#SVGID_9_"  style="overflow:visible;"/>
	</clipPath>
	<path class="st5" d="M345.8,568.2v6h-1.3v-0.7c-0.5,0.4-1,0.8-1.5,0.8c-0.8,0-1.3-0.4-1.3-1.5v-4.5h1.4v4.4c0,0.4,0.1,0.7,0.5,0.7
		c0.3,0,0.6-0.3,0.9-0.5v-4.5H345.8z"/>
	<path class="st5" d="M350,570.4v-0.3c0-0.5-0.3-0.9-0.8-0.9c-0.6,0-0.8,0.3-0.8,0.9v0.3H350z M348.4,571.5v0.8
		c0,0.6,0.4,0.9,0.8,0.9c0.6,0,0.8-0.4,0.8-0.8h1.4c-0.1,1.2-0.8,1.9-2.2,1.9c-1.3,0-2.2-0.8-2.2-2.1v-1.9c0-1.3,0.9-2.1,2.2-2.1
		c1.3,0,2.2,0.8,2.2,2v1.4H348.4z"/>
	<path class="st5" d="M352.6,574.2v-6h1.3v0.7c0.5-0.4,1-0.8,1.5-0.8c0.8,0,1.3,0.4,1.3,1.5v4.5h-1.4v-4.4c0-0.4-0.1-0.7-0.5-0.7
		c-0.3,0-0.6,0.3-0.9,0.5v4.5H352.6z"/>
	<path class="st5" d="M360.9,570.3V570c0-0.5-0.3-0.7-0.8-0.7c-0.5,0-0.8,0.2-0.8,0.7v2.4c0,0.5,0.3,0.7,0.8,0.7
		c0.5,0,0.8-0.2,0.8-0.7V572h1.4v0c0,1.6-0.8,2.3-2.2,2.3c-1.4,0-2.2-0.7-2.2-2.3v-1.7c0-1.6,0.8-2.3,2.2-2.3c1.3,0,2.2,0.7,2.2,2.2
		H360.9z"/>
</g>
<path class="st1" d="M365.1,574.2h-1.4v-6h1.4V574.2z M363.7,566h1.4v1.2h-1.4V566z"/>
<g>
	<defs>
		<rect id="SVGID_11_" x="180" y="545" width="841.9" height="50.2"/>
	</defs>
	<clipPath id="SVGID_12_">
		<use xlink:href="#SVGID_11_"  style="overflow:visible;"/>
	</clipPath>
	<path class="st6" d="M366.6,574.2v-6h1.3v0.7c0.5-0.4,1-0.8,1.5-0.8c0.8,0,1.3,0.4,1.3,1.5v4.5h-1.4v-4.4c0-0.4-0.1-0.7-0.5-0.7
		c-0.3,0-0.6,0.3-0.9,0.5v4.5H366.6z"/>
	<path class="st6" d="M373.9,569.2c-0.5,0-0.7,0.4-0.7,1.3c0,0.7,0.2,1.1,0.7,1.1c0.6,0,0.8-0.2,0.8-1.3
		C374.6,569.6,374.3,569.2,373.9,569.2 M373.2,574.4c-0.1,0.1-0.3,0.3-0.3,0.5c0,0.3,0.4,0.4,1.3,0.4c0.7,0,1-0.2,1-0.5
		c0-0.2-0.1-0.3-0.5-0.3L373.2,574.4z M376.6,569.3c-0.1,0-0.3-0.1-0.4-0.1c-0.1,0-0.3,0.1-0.5,0.1c0.1,0.4,0.2,0.7,0.2,1.1
		c0,1.5-0.6,2.3-2,2.3c-0.2,0-0.4,0-0.6-0.1c-0.1,0.1-0.2,0.2-0.2,0.3c0,0.7,3.5-0.4,3.5,1.8c0,1-1.1,1.5-2.6,1.5
		c-1.5,0-2.3-0.4-2.3-1.1c0-0.4,0.5-0.7,0.8-0.9c-0.3-0.2-0.6-0.5-0.6-0.8c0-0.5,0.5-0.8,0.8-1c-0.7-0.4-0.9-1.1-0.9-2.1
		c0-1.3,0.5-2.2,2-2.2c0.6,0,1.2,0.3,1.6,0.7c0.4-0.4,0.7-0.7,1.2-0.7V569.3z"/>
	<path class="st6" d="M381.9,572.8c0.3,0.3,0.5,0.4,0.8,0.4c0.4,0,0.7-0.2,0.7-1.4v-1.3c0-1.2-0.3-1.4-0.7-1.4
		c-0.3,0-0.6,0.1-0.8,0.4V572.8z M381.8,568.2v0.7h0c0.2-0.4,0.9-0.8,1.5-0.8c1.1,0,1.5,0.8,1.5,2.4v1.4c0,1.5-0.4,2.4-1.5,2.4
		c-0.4,0-0.7-0.2-1.4-0.7v2.6h-1.4v-8H381.8z"/>
	<path class="st6" d="M387.3,572.4c0,0.5,0.3,0.7,0.8,0.7c0.5,0,0.8-0.2,0.8-0.7V570c0-0.5-0.3-0.7-0.8-0.7c-0.5,0-0.8,0.2-0.8,0.7
		V572.4z M385.9,570.4c0-1.6,0.8-2.3,2.2-2.3c1.4,0,2.2,0.7,2.2,2.3v1.7c0,1.6-0.8,2.3-2.2,2.3c-1.4,0-2.2-0.7-2.2-2.3V570.4z"/>
</g>
<rect x="391.7" y="566.3" class="st1" width="1.4" height="7.9"/>
<path class="st1" d="M396.1,574.2h-1.4v-6h1.4V574.2z M394.7,566h1.4v1.2h-1.4V566z"/>
<g>
	<defs>
		<rect id="SVGID_13_" x="180" y="545" width="841.9" height="50.2"/>
	</defs>
	<clipPath id="SVGID_14_">
		<use xlink:href="#SVGID_13_"  style="overflow:visible;"/>
	</clipPath>
	<path class="st7" d="M400.4,570.3V570c0-0.5-0.3-0.7-0.8-0.7c-0.5,0-0.8,0.2-0.8,0.7v2.4c0,0.5,0.3,0.7,0.8,0.7
		c0.5,0,0.8-0.2,0.8-0.7V572h1.4v0c0,1.6-0.8,2.3-2.2,2.3c-1.4,0-2.2-0.7-2.2-2.3v-1.7c0-1.6,0.8-2.3,2.2-2.3c1.3,0,2.2,0.7,2.2,2.2
		H400.4z"/>
</g>
<path class="st1" d="M404.6,574.2h-1.4v-6h1.4V574.2z M403.2,566h1.4v1.2h-1.4V566z"/>
<g>
	<defs>
		<rect id="SVGID_15_" x="180" y="545" width="841.9" height="50.2"/>
	</defs>
	<clipPath id="SVGID_16_">
		<use xlink:href="#SVGID_15_"  style="overflow:visible;"/>
	</clipPath>
	<path class="st8" d="M409,570.4v-0.3c0-0.5-0.3-0.9-0.8-0.9c-0.6,0-0.8,0.3-0.8,0.9v0.3H409z M407.3,571.5v0.8
		c0,0.6,0.4,0.9,0.8,0.9c0.6,0,0.8-0.4,0.8-0.8h1.4c-0.1,1.2-0.8,1.9-2.2,1.9c-1.3,0-2.2-0.8-2.2-2.1v-1.9c0-1.3,0.9-2.1,2.2-2.1
		c1.3,0,2.2,0.8,2.2,2v1.4H407.3z"/>
	<path class="st8" d="M414.2,570.1c-0.2-0.5-0.5-0.8-1-0.8c-0.3,0-0.6,0.2-0.6,0.5c0,0.9,2.7,0.9,2.7,2.7c0,1.2-0.8,1.8-2,1.8
		c-0.8,0-1.6-0.2-2.2-1.7l1.2-0.3c0.1,0.6,0.5,0.9,1,0.9c0.4,0,0.7-0.2,0.7-0.5c0-1.1-2.7-0.9-2.7-2.9c0-1.1,0.9-1.7,1.9-1.7
		c1,0,1.7,0.6,2.1,1.5L414.2,570.1z"/>
</g>
<rect x="327.4" y="577.1" class="st1" width="1.5" height="7.9"/>
<g>
	<defs>
		<rect id="SVGID_17_" x="180" y="545" width="841.9" height="50.2"/>
	</defs>
	<clipPath id="SVGID_18_">
		<use xlink:href="#SVGID_17_"  style="overflow:visible;"/>
	</clipPath>
	<path class="st9" d="M330.4,579h1.3v0.7c0.4-0.4,0.9-0.8,1.5-0.8c0.5,0,0.9,0.3,1,0.9c0.4-0.5,0.9-0.9,1.5-0.9
		c0.8,0,1.3,0.5,1.3,1.6v4.5h-1.4v-4.5c0-0.4-0.1-0.5-0.4-0.5c-0.3,0-0.7,0.3-0.9,0.5v4.5H333v-4.5c0-0.4-0.2-0.5-0.4-0.5
		c-0.3,0-0.7,0.3-0.9,0.5v4.5h-1.4V579z"/>
	<path class="st9" d="M339.6,583.6c0.3,0.3,0.5,0.4,0.8,0.4c0.4,0,0.7-0.2,0.7-1.4v-1.3c0-1.2-0.3-1.4-0.7-1.4
		c-0.3,0-0.6,0.1-0.8,0.4V583.6z M339.5,579v0.7h0c0.2-0.4,0.9-0.8,1.5-0.8c1.1,0,1.5,0.8,1.5,2.4v1.4c0,1.5-0.4,2.4-1.5,2.4
		c-0.4,0-0.7-0.2-1.4-0.7v2.6h-1.4v-8H339.5z"/>
	<path class="st9" d="M346.4,582.1c-0.8,0.3-1.7,0.7-1.7,1.4c0,0.4,0.2,0.6,0.6,0.6c0.4,0,0.7-0.2,1-0.5V582.1z M343.6,580.8
		c0.1-0.7,0.3-1.1,0.7-1.4c0.4-0.3,0.9-0.4,1.5-0.4c1.5,0,2,0.7,2,1.8v3.8c0,0.2,0,0.3,0.1,0.5h-1.4c0-0.2-0.1-0.3-0.1-0.6
		c-0.4,0.4-1,0.7-1.6,0.7c-0.8,0-1.4-0.5-1.4-1.4c0-1.4,1.3-2,3-2.5v-0.4c0-0.5-0.3-0.7-0.7-0.7c-0.4,0-0.8,0.3-0.8,0.7H343.6z"/>
	<path class="st9" d="M352.1,581.1v-0.3c0-0.5-0.3-0.7-0.8-0.7c-0.5,0-0.8,0.2-0.8,0.7v2.4c0,0.5,0.3,0.7,0.8,0.7
		c0.5,0,0.8-0.2,0.8-0.7v-0.4h1.4v0c0,1.6-0.8,2.3-2.2,2.3c-1.4,0-2.2-0.7-2.2-2.3v-1.7c0-1.6,0.8-2.3,2.2-2.3
		c1.3,0,2.2,0.7,2.2,2.2H352.1z"/>
	<path class="st9" d="M354.1,580.4v-1.1h0.5v-1.6h1.4v1.6h0.9v1.1H356v3c0,0.3,0.3,0.4,0.6,0.4c0.1,0,0.2,0,0.3,0v1.2
		c-0.3,0-0.5,0.1-0.8,0.1c-0.9,0-1.5-0.3-1.5-1.2v-3.5H354.1z"/>
</g>
<path class="st1" d="M359.2,585h-1.4v-6h1.4V585z M357.9,576.8h1.4v1.2h-1.4V576.8z"/>
<g>
	<defs>
		<rect id="SVGID_19_" x="180" y="545" width="841.9" height="50.2"/>
	</defs>
	<clipPath id="SVGID_20_">
		<use xlink:href="#SVGID_19_"  style="overflow:visible;"/>
	</clipPath>
	<path class="st10" d="M360.7,585v-6h1.3v0.7c0.5-0.4,1-0.8,1.5-0.8c0.8,0,1.3,0.4,1.3,1.5v4.5h-1.4v-4.4c0-0.4-0.1-0.7-0.5-0.7
		c-0.3,0-0.6,0.3-0.9,0.5v4.5H360.7z"/>
	<path class="st10" d="M368,580c-0.5,0-0.7,0.4-0.7,1.3c0,0.7,0.2,1.1,0.7,1.1c0.6,0,0.8-0.2,0.8-1.3C368.7,580.4,368.5,580,368,580
		 M367.4,585.2c-0.1,0.1-0.3,0.3-0.3,0.5c0,0.3,0.4,0.4,1.3,0.4c0.7,0,1-0.2,1-0.5c0-0.2-0.1-0.3-0.5-0.3L367.4,585.2z M370.8,580.1
		c-0.1,0-0.3-0.1-0.4-0.1c-0.1,0-0.3,0.1-0.5,0.1c0.1,0.4,0.2,0.7,0.2,1.1c0,1.5-0.6,2.3-2,2.3c-0.2,0-0.4,0-0.6-0.1
		c-0.1,0.1-0.2,0.2-0.2,0.3c0,0.7,3.5-0.4,3.5,1.8c0,1-1.1,1.5-2.6,1.5c-1.5,0-2.3-0.4-2.3-1.1c0-0.4,0.5-0.7,0.8-0.9
		c-0.3-0.2-0.6-0.5-0.6-0.8c0-0.5,0.5-0.8,0.8-1c-0.7-0.4-0.9-1.1-0.9-2.1c0-1.3,0.5-2.2,2-2.2c0.6,0,1.2,0.3,1.6,0.7
		c0.4-0.4,0.7-0.7,1.2-0.7V580.1z"/>
</g>
<rect x="374.9" y="577.1" class="st1" width="1.4" height="7.9"/>
<path class="st1" d="M379.3,585h-1.4v-6h1.4V585z M377.9,576.8h1.4v1.2h-1.4V576.8z"/>
<polygon class="st1" points="382.5,582.9 382.6,582.9 383.5,579 384.9,579 383.2,585 381.9,585 380.3,579 381.6,579 "/>
<g>
	<defs>
		<rect id="SVGID_21_" x="180" y="545" width="841.9" height="50.2"/>
	</defs>
	<clipPath id="SVGID_22_">
		<use xlink:href="#SVGID_21_"  style="overflow:visible;"/>
	</clipPath>
	<path class="st11" d="M388.5,581.2v-0.3c0-0.5-0.3-0.9-0.8-0.9c-0.6,0-0.8,0.3-0.8,0.9v0.3H388.5z M386.9,582.3v0.8
		c0,0.6,0.4,0.9,0.8,0.9c0.6,0,0.8-0.4,0.8-0.8h1.4c-0.1,1.2-0.8,1.9-2.2,1.9c-1.3,0-2.2-0.8-2.2-2.1V581c0-1.3,0.9-2.1,2.2-2.1
		c1.3,0,2.2,0.8,2.2,2v1.4H386.9z"/>
	<path class="st11" d="M393.7,580.8c-0.2-0.5-0.5-0.8-1-0.8c-0.3,0-0.6,0.2-0.6,0.5c0,0.9,2.7,0.9,2.7,2.7c0,1.2-0.8,1.8-2,1.8
		c-0.8,0-1.6-0.2-2.2-1.7l1.2-0.3c0.1,0.6,0.5,0.9,1,0.9c0.4,0,0.7-0.2,0.7-0.5c0-1.1-2.7-0.9-2.7-2.9c0-1.1,0.9-1.7,1.9-1.7
		c1,0,1.7,0.6,2.1,1.5L393.7,580.8z"/>
	<path class="st11" d="M195.9,555.3h-5.7v29.8h5.7V555.3z M206.6,585.1v-23.4h0.1l6.1,23.4h4.3l6.1-23.4h0.1v23.4h4.9v-29.8h-8
		l-5.2,19.6h-0.1l-5.2-19.6h-8v29.8H206.6z M239.5,585.1v-12h2.5c7,0,10.4-3.3,10.4-8.9s-3.4-8.9-10.4-8.9h-8.2v29.8H239.5z
		 M239.5,560h3.1c2.8,0,4.2,1.4,4.2,4.2c0,2.8-1.4,4.2-4.2,4.2h-3.1V560z M263.8,561.7L263.8,561.7l2.8,12.1H261L263.8,561.7z
		 M258.4,585.1l1.6-6.3h7.9l1.4,6.3h5.4l-7.2-29.8h-7.3l-7.4,29.8H258.4z M283,564.1c0-3.3,1.4-4.2,3.7-4.2c2.3,0,3.7,0.9,3.7,4.2
		v0.8h5.7v-0.1c0-7.3-3.9-10-9.4-10c-5.5,0-9.4,2.6-9.4,10v10.6c0,7.3,3.9,10,9.4,10c5.5,0,9.4-2.6,9.4-10v-1.2h-5.7v2
		c0,3.3-1.4,4.2-3.7,4.2c-2.3,0-3.7-0.9-3.7-4.2V564.1z M299.1,555.3v5h6.6v24.8h5.7v-24.8h6.6v-5H299.1z"/>
</g>
</svg>
