<?xml version="1.0" encoding="utf-8"?>
<!-- Generator: Adobe Illustrator 21.0.0, SVG Export Plug-In . SVG Version: 6.00 Build 0)  -->
<svg version="1.1" id="Layer_1" xmlns="http://www.w3.org/2000/svg" xmlns:xlink="http://www.w3.org/1999/xlink" x="0px" y="0px"
	 viewBox="0 0 1024 768" style="enable-background:new 0 0 1024 768;" xml:space="preserve">
<style type="text/css">
	.st0{clip-path:url(#SVGID_2_);}
	.st1{clip-path:url(#SVGID_2_);fill:none;stroke:#960000;stroke-width:0.7422;stroke-miterlimit:10;}
	.st2{font-family:'ArialNarrow';}
	.st3{font-size:32.6563px;}
	.st4{font-family:'ArialNarrow-Bold';}
</style>
<g>
	<defs>
		<rect id="SVGID_1_" x="30" y="-252" width="1520" height="1140"/>
	</defs>
	<clipPath id="SVGID_2_">
		<use xlink:href="#SVGID_1_"  style="overflow:visible;"/>
	</clipPath>
	<path class="st0" d="M1549.6,801.4c0-3.5,0.2-6,2-9.2c1-1.7,2.9-3.4,4.9-1.9c1.5,1.1,2.1,4.3,2.7,5.9c0.5,1.7,1.1,3.6,1.2,5.4"/>
	<path class="st1" d="M1548.2,779.2c-3.4-1-7.4-3.6-8.1-7.3c-0.3-2.2-0.1-3.8,1.1-5.7c0.9-1.5,1.8-2.8,3.1-4c3-3,7.2-5.6,11.6-4.2
		c1.6,0.5,3.3,1.3,4.5,2.4c0.9,0.9,2,2.8,2.4,4.4"/>
	<path class="st0" d="M113.4,149.2c-1.6,84.7,4.7,169.6,13.9,253.8c4.2,39.2,9.6,78.2,15.9,117.1c8,48.9,21.7,97.4,22.9,147.2
		c0,1.1,1.8,1.1,1.8,0c-1.1-44.5-12.3-87.8-20.1-131.4c-7.9-44-13.7-88.4-18.6-132.9c-9.4-84.1-15.5-169.1-13.9-253.8
		C115.2,148.1,113.5,148.1,113.4,149.2"/>
	<path class="st0" d="M107.7,614.2h410.8h211.9c32.6,0,74,15.2,103.1-5.4c0.9-0.7,0-2.2-0.9-1.5c-31.2,22.1-89.5,5.1-125.8,5.1
		H506.8H107.7C106.6,612.4,106.6,614.2,107.7,614.2"/>
	<path class="st0" d="M177.5,587.8c18.5-1.5,32.3-14.3,45.8-26.1c26.8-23.3,58.9-33.8,87.2-54.4c13-9.5,24.8-19.6,39.1-27.1
		c17.2-8.9,34.8-14.5,51.5-24.5c31.5-19,58-44.9,90.5-62.6c29-15.7,58-28.7,83.8-49.6c33.9-27.5,67.8-43.8,108.2-59.9
		c62.1-24.7,102.9-71.7,157.2-108.5c0.8-0.6,0.1-2-0.8-1.4c-53.9,36.5-95.1,83.4-156.8,108.3c-26.5,10.7-52.7,20.8-77.3,35.7
		c-30.9,18.7-56,43.9-88.5,60.8c-30.1,15.6-57.2,31.6-84.1,52.3c-29.3,22.5-60.4,35.5-92.7,52.3c-13.5,7-26.5,19.6-38.6,28.4
		c-12.4,9-26.8,14.8-40.6,21.2c-28.9,13.5-51.1,50.6-83.8,53.4C176.5,586.3,176.5,587.9,177.5,587.8"/>
	<path class="st0" d="M177.5,587.8c18.5-1.5,32.3-14.3,45.8-26.1c26.8-23.3,58.9-33.8,87.2-54.4c13-9.5,24.8-19.6,39.1-27.1
		c17.2-8.9,34.8-14.5,51.5-24.5c31.5-19,58-44.9,90.5-62.6c29-15.7,58-28.7,83.8-49.6c33.9-27.5,67.8-43.8,108.2-59.9
		c62.1-24.7,102.9-71.7,157.2-108.5c0.8-0.6,0.1-2-0.8-1.4c-53.9,36.5-95.1,83.4-156.8,108.3c-26.5,10.7-52.7,20.8-77.3,35.7
		c-30.9,18.7-56,43.9-88.5,60.8c-30.1,15.6-57.2,31.6-84.1,52.3c-29.3,22.5-60.4,35.5-92.7,52.3c-13.5,7-26.5,19.6-38.6,28.4
		c-12.4,9-26.8,14.8-40.6,21.2c-28.9,13.5-51.1,50.6-83.8,53.4C176.5,586.3,176.5,587.9,177.5,587.8"/>
	<path class="st0" d="M177.5,587.8c18.5-1.5,32.3-14.3,45.8-26.1c26.8-23.3,58.9-33.8,87.2-54.4c13-9.5,24.8-19.6,39.1-27.1
		c17.2-8.9,34.8-14.5,51.5-24.5c31.5-19,58-44.9,90.5-62.6c29-15.7,58-28.7,83.8-49.6c33.9-27.5,67.8-43.8,108.2-59.9
		c62.1-24.7,102.9-71.7,157.2-108.5c0.8-0.6,0.1-2-0.8-1.4c-53.9,36.5-95.1,83.4-156.8,108.3c-26.5,10.7-52.7,20.8-77.3,35.7
		c-30.9,18.7-56,43.9-88.5,60.8c-30.1,15.6-57.2,31.6-84.1,52.3c-29.3,22.5-60.4,35.5-92.7,52.3c-13.5,7-26.5,19.6-38.6,28.4
		c-12.4,9-26.8,14.8-40.6,21.2c-28.9,13.5-51.1,50.6-83.8,53.4C176.5,586.3,176.5,587.9,177.5,587.8"/>
	<path class="st0" d="M179.7,587.6c14.2-7.8,19.9-23.9,26-38.1c9.7-22.3,27.6-38.3,40-58.9c7.8-12.9,12.9-26,22.4-37.9
		c7.3-9.2,16.7-16.6,23.2-26.3c16-23.8,27.3-50.2,43-74.2c15.7-24,35.3-43.2,48.4-69.1c15-29.6,32.4-53.1,55.5-77
		c37.9-39.1,52.3-87.3,79.6-133.2c0.4-0.7-0.7-1.3-1.1-0.6c-12.5,21-22,43.4-32.2,65.5c-13.3,28.9-31.8,51.5-53.8,74.3
		c-38,39.3-57.3,89.3-91.7,131.6c-14,17.1-23.3,37.8-33.6,57.1c-13.1,24.6-34.2,42.1-48.4,65.5c-12.2,20.2-24.4,38.2-38.2,57.3
		c-13.4,18.6-18.6,51.2-39.9,62.9C178.3,586.9,179,588,179.7,587.6"/>
	<path class="st0" d="M487.2,98c10.4-7.1,22.2-11.4,26.7-24.2c-0.6-0.1-1.2-0.2-1.7-0.2c-1.4,14.1-4,28-6.5,41.9
		c-0.2,1.1,1.5,1.6,1.7,0.5c2.6-14.1,5.2-28.1,6.6-42.4c0.1-1.1-1.4-1.1-1.7-0.2c-4.3,12.2-16,16.4-25.9,23.2
		C485.4,97.1,486.3,98.6,487.2,98"/>
	<path class="st0" d="M805.4,171.8h21.3h10.7c4,0,1.1,6.1,0.7,7.6c-3.1,12.1-7.3,23.8-8.6,36.3c-0.1,1.1,1.7,1.1,1.8,0
		c1.6-15.3,7.5-29.5,10.5-44.5c0.1-0.6-0.2-1.1-0.9-1.1h-35.5C804.2,170.1,804.2,171.8,805.4,171.8"/>
	<path class="st0" d="M818.5,598.4c10.2-1.1,23.4,1.9,31.4,8.4c11.5,9.4-10.6,24.8-19.6,25.4c-1.1,0.1-1.1,1.9,0,1.8
		c9.7-0.7,26.6-12.1,24.3-23.3c-1.1-5.5-8.3-8.6-12.9-10.4c-7.1-2.8-15.7-4.5-23.3-3.6C817.4,596.8,817.4,598.5,818.5,598.4"/>
	<path class="st0" d="M89.9,175.4c3.7-6.4,5.4-13.5,8.3-20.3c0.6-1.3,1.2-2.5,2-3.7c0.3-0.5,7.8-7.5,7.7-5.7
		c-0.2,2.9,0.5,5.9,1.4,8.6c4.7,14.6,21.3,21.2,25.1,36.7c0.3,1.1,2,0.6,1.7-0.5c-4.5-18.4-27.9-26.9-26.3-47.2
		c0-0.5-0.6-1.1-1.1-0.9c-13.6,5.1-13.9,20.9-20.3,32C87.8,175.5,89.4,176.3,89.9,175.4"/>
	<path class="st0" d="M171.6,541.3c57.4-0.5,111.9-3.6,169.2,2.2c54.7,5.6,109.1-5.2,163.8-5.8c60.7-0.7,120.5,13.2,181.1,13.7
		c59.9,0.5,120.4,2,180.3,0.2c1,0,1-1.6,0-1.6c-60.1,1.8-120.2-1.5-180.3-0.2c-60.6,1.3-120.5-13-181.1-13.7
		c-58-0.7-115.2,13.1-173.1,4.4c-53.3-8-106.4-1.3-159.9-0.8C170.5,539.7,170.5,541.3,171.6,541.3"/>
	<path class="st0" d="M845.3,534.9c6.6,1.7,10.2,6.7,14.2,11.7c1.4,1.7,2.8,3.2,4.4,4.6c0.7,0.6-11.1,2.8-12.3,3
		c-12.7,1.3-20.3,11.2-30.9,17c-0.9,0.5-0.1,1.9,0.8,1.4c6.8-3.7,12.5-8.9,18.9-13.3c7.3-5.1,17.7-3.2,25.9-6.6
		c0.5-0.2,0.9-0.9,0.4-1.3c-7.4-5.8-11.2-15.4-20.9-18C844.7,533.1,844.3,534.6,845.3,534.9"/>
</g>
<text transform="matrix(1 0 0 1 334.2354 140.3135)" class="st2 st3">ERRORS</text>
<text transform="matrix(1 0 0 1 695.085 307.6689)" class="st2 st3">WORK HOURS</text>
<text transform="matrix(1 0 0 1 740.0596 522.8535)" class="st2 st3">DEPTH</text>
<text transform="matrix(1 0 0 1 578.2207 677.8457)" class="st4 st3">GROWTH OVER TIME</text>
</svg>
