<?xml version="1.0" encoding="utf-8"?>
<!-- Generator: Adobe Illustrator 21.0.0, SVG Export Plug-In . SVG Version: 6.00 Build 0)  -->
<svg version="1.1" id="Layer_1" xmlns="http://www.w3.org/2000/svg" xmlns:xlink="http://www.w3.org/1999/xlink" x="0px" y="0px"
	 viewBox="0 0 1024 768" style="enable-background:new 0 0 1024 768;" xml:space="preserve">
<style type="text/css">
	.st0{clip-path:url(#SVGID_4_);}
	.st1{clip-path:url(#SVGID_4_);fill:none;stroke:#960000;stroke-width:0.5;stroke-miterlimit:10;}
	.st2{clip-path:url(#SVGID_6_);}
	.st3{font-family:'ArialNarrow';}
	.st4{font-size:36.6231px;}
	.st5{font-family:'ArialNarrow-Bold';}
	.st6{font-size:32.6563px;}
</style>
<g>
	<defs>
		<rect id="SVGID_1_" width="1024" height="768"/>
	</defs>
	<clipPath id="SVGID_2_">
		<use xlink:href="#SVGID_1_"  style="overflow:visible;"/>
	</clipPath>
</g>
<g>
	<defs>
		<rect id="SVGID_3_" width="1024" height="768"/>
	</defs>
	<clipPath id="SVGID_4_">
		<use xlink:href="#SVGID_3_"  style="overflow:visible;"/>
	</clipPath>
	<path class="st0" d="M1023.7,709.7c0-2.3,0.1-4.1,1.4-6.2c0.7-1.2,2-2.3,3.3-1.3c1,0.7,1.4,2.9,1.8,4c0.3,1.2,0.8,2.4,0.8,3.7"/>
	<path class="st1" d="M1022.8,694.7c-2.3-0.7-5-2.4-5.5-4.9c-0.2-1.5,0-2.6,0.7-3.9c0.6-1,1.2-1.9,2.1-2.7c2-2,4.9-3.8,7.8-2.8
		c1.1,0.3,2.2,0.9,3,1.7c0.6,0.6,1.4,1.9,1.6,2.9"/>
</g>
<g>
	<defs>
		<rect id="SVGID_5_" width="1024" height="768"/>
	</defs>
	<clipPath id="SVGID_6_">
		<use xlink:href="#SVGID_5_"  style="overflow:visible;"/>
	</clipPath>
	<path class="st2" d="M44.4,95c-1.6,93.6,5.1,187.1,17.7,279.8c14.2,104.7,47.4,211.4,49.9,317c0,1.5,2.3,1.5,2.3,0
		c-2.2-92.3-30.2-184.6-44.1-275.7C54.1,309.8,44.8,202.5,46.7,95C46.7,93.5,44.4,93.5,44.4,95"/>
	<path class="st2" d="M37.1,623.6h527.5h272.1c41.9,0,95,19.5,132.4-6.9c1.2-0.8,0.1-2.8-1.2-2c-40.1,28.4-114.9,6.6-161.5,6.6
		H549.5H37.1C35.6,621.3,35.6,623.6,37.1,623.6"/>
	<path class="st2" d="M122,60.3c6.5,52.7,2.7,105.8,10.6,158.4c7,46.5,28.5,92.9,47.3,135.6c33.1,75.4,79.8,137.9,158.6,168.7
		c85,33.3,177,40.4,267.5,36.1c52.1-2.5,102.9-7.6,155.3-4.7c51.2,2.9,107.7-1.6,157.8,9c1.4,0.3,2.1-1.9,0.6-2.2
		c-35.7-7.5-72.1-3.7-108.4-4.6c-48.9-1.1-96.3-7.2-145.5-4.5c-92.3,5.1-180.4,9.1-271.3-13.2c-94.8-23.3-160.5-77.9-203.1-165
		c-22-44.9-40.6-93.3-53.5-141.6c-14.9-55.4-6.5-115.6-13.5-172.1C124.1,58.9,121.8,58.9,122,60.3"/>
	<path class="st2" d="M903.1,546.2c6,3.6,15.5,10.1,10.5,18.1c-3.8,6.1-13.5,7.8-20,8.5c-1.4,0.1-1.5,2.4,0,2.3
		c8.2-0.8,18.9-3.2,23-11.4c4.2-8.5-6.2-15.9-12.3-19.5C903,543.5,901.9,545.5,903.1,546.2"/>
	<path class="st2" d="M168.9,155.9c34.8,4,69.8,1.2,104.5,6.2c36,5.2,70,29.9,97.2,52.6c48.5,40.6,79.3,106.6,116.2,157.5
		c34.5,47.6,74.3,87.5,120.6,123.6c20.2,15.8,41.5,29.5,64.7,40.2c28,13,60,13.1,89.8,18.7c1.3,0.2,1.8-1.7,0.5-2
		c-34.6-6.5-67.6-8.4-100.1-23.5c-34.3-15.9-63.9-42.6-92.6-66.6c-50.6-42.2-88-99.6-124.4-153.8c-30.8-45.8-57.9-87.1-103.8-118.9
		c-54.7-38-110-29-172.6-36.2C167.6,153.7,167.6,155.7,168.9,155.9"/>
	<path class="st2" d="M732.8,525.8c7.5,9.2,14.5,18.7,20.4,29.1c5.1,9.1-23.6,20.1-28.4,21.6c-1.2,0.4-0.7,2.4,0.5,2
		c12.4-3.8,23.3-10.1,31-20.8c0.2-0.3,0.2-0.7,0-1c-6.1-11.6-13.8-22.2-22.1-32.3C733.4,523.3,731.9,524.8,732.8,525.8"/>
	<path class="st2" d="M142,529.8c64.5-23.6,125.6-54.3,193.4-68.1c73.5-15,137.9-54.4,207.7-80.3c73.3-27.2,151.9-36.2,225.7-62.2
		c72.4-25.5,145.9-49.4,217.3-77.5c1.2-0.5,0.7-2.5-0.5-2c-67.3,26.5-137,46.1-204.4,72.6c-72.9,28.7-151.1,38.9-225.5,62.6
		c-71.5,22.8-135.4,64.4-208.6,82.4c-71.7,17.7-136.4,45.2-205.5,70.5C140.3,528.2,140.8,530.2,142,529.8"/>
	<path class="st2" d="M987.1,239.2c-9.5,17.5-30.9,25.3-37.9,44.4c-0.4,1.2,1.5,1.8,2,0.5c6.9-18.8,28.3-26.7,37.7-44
		C989.5,239.1,987.7,238.1,987.1,239.2"/>
	<path class="st2" d="M987.3,238.7c-25.6,0.3-50.4-5.6-74.6-13.5c-1.3-0.4-1.8,1.6-0.5,2c24.4,7.9,49.4,13.8,75.1,13.6
		C988.6,240.7,988.6,238.7,987.3,238.7"/>
</g>
<text transform="matrix(1 0 0 1 204.5439 373.6362)" class="st3 st4">ERRORS</text>
<text transform="matrix(1 0 0 1 408.6309 207.4517)" class="st3 st4">WORK HOURS</text>
<text transform="matrix(1 0 0 1 831.4297 360.0591)" class="st3 st4">DEPTH</text>
<g>
	<defs>
		<rect id="SVGID_7_" width="1024" height="768"/>
	</defs>
	<clipPath id="SVGID_8_">
		<use xlink:href="#SVGID_7_"  style="overflow:visible;"/>
	</clipPath>
</g>
<g>
	<defs>
		<rect id="SVGID_9_" width="1024" height="768"/>
	</defs>
	<clipPath id="SVGID_10_">
		<use xlink:href="#SVGID_9_"  style="overflow:visible;"/>
	</clipPath>
</g>
<g>
	<defs>
		<rect id="SVGID_11_" width="1024" height="768"/>
	</defs>
	<clipPath id="SVGID_12_">
		<use xlink:href="#SVGID_11_"  style="overflow:visible;"/>
	</clipPath>
</g>
<g>
	<defs>
		<rect id="SVGID_13_" width="1024" height="768"/>
	</defs>
	<clipPath id="SVGID_14_">
		<use xlink:href="#SVGID_13_"  style="overflow:visible;"/>
	</clipPath>
</g>
<g>
	<defs>
		<rect id="SVGID_15_" width="1024" height="768"/>
	</defs>
	<clipPath id="SVGID_16_">
		<use xlink:href="#SVGID_15_"  style="overflow:visible;"/>
	</clipPath>
</g>
<g>
	<defs>
		<rect id="SVGID_17_" width="1024" height="768"/>
	</defs>
	<clipPath id="SVGID_18_">
		<use xlink:href="#SVGID_17_"  style="overflow:visible;"/>
	</clipPath>
</g>
<g>
	<defs>
		<rect id="SVGID_19_" width="1024" height="768"/>
	</defs>
	<clipPath id="SVGID_20_">
		<use xlink:href="#SVGID_19_"  style="overflow:visible;"/>
	</clipPath>
</g>
<text transform="matrix(1 0 0 1 578.2207 677.8457)" class="st5 st6">GROWTH OVER TIME</text>
</svg>
